{"accessors" : [{"bufferView" : 0, "byteOffset" : 0, "componentType" : 5123, "count" : 37152, "type" : "SCALAR", "max" : [37151], "min" : [0]}, {"bufferView" : 1, "byteOffset" : 0, "componentType" : 5126, "count" : 37152, "type" : "VEC3", "max" : [42.2859992980957, 70.06199645996094, 34], "min" : [-30.285999298095703, -41, 0], "name" : "POSITION"}, {"bufferView" : 1, "byteOffset" : 12, "componentType" : 5126, "count" : 37152, "type" : "VEC3", "max" : [1.0000044107437134, 1.0000044107437134, 1.0000044107437134], "min" : [-1.0000044107437134, -1.0000044107437134, -1.0000044107437134], "name" : "NORMAL"}, {"bufferView" : 0, "byteOffset" : 74304, "componentType" : 5123, "count" : 582, "type" : "SCALAR", "max" : [581], "min" : [0]}, {"bufferView" : 2, "byteOffset" : 0, "componentType" : 5126, "count" : 582, "type" : "VEC3", "max" : [14, 63, 35.481998443603516], "min" : [-2, 22.9950008392334, 25.5], "name" : "POSITION"}, {"bufferView" : 2, "byteOffset" : 12, "componentType" : 5126, "count" : 582, "type" : "VEC3", "max" : [1.0000044107437134, 0.9814335107803345, 0.9999294877052307], "min" : [-1.0000044107437134, -1.0000044107437134, 0], "name" : "NORMAL"}, {"bufferView" : 0, "byteOffset" : 75468, "componentType" : 5123, "count" : 14748, "type" : "SCALAR", "max" : [14747], "min" : [0]}, {"bufferView" : 3, "byteOffset" : 0, "componentType" : 5126, "count" : 14748, "type" : "VEC3", "max" : [42.99800109863281, 71.81199645996094, 37], "min" : [-30.285999298095703, -70, 5], "name" : "POSITION"}, {"bufferView" : 3, "byteOffset" : 12, "componentType" : 5126, "count" : 14748, "type" : "VEC3", "max" : [1.0000044107437134, 1.0000044107437134, 1.0000044107437134], "min" : [-1.0000044107437134, -1.0000044107437134, -1.0000044107437134], "name" : "NORMAL"}, {"bufferView" : 0, "byteOffset" : 104964, "componentType" : 5123, "count" : 1395, "type" : "SCALAR", "max" : [1394], "min" : [0]}, {"bufferView" : 4, "byteOffset" : 0, "componentType" : 5126, "count" : 1395, "type" : "VEC3", "max" : [14.753199577331543, 67, 12.917799949645996], "min" : [-2.753200054168701, 66, 7.082200050354004], "name" : "POSITION"}, {"bufferView" : 4, "byteOffset" : 12, "componentType" : 5126, "count" : 1395, "type" : "VEC3", "max" : [0.8753783702850342, 1.0000044107437134, 0.9830783009529114], "min" : [-0.8753783702850342, 0.14672791957855225, -0.9830783009529114], "name" : "NORMAL"}, {"bufferView" : 0, "byteOffset" : 107756, "componentType" : 5123, "count" : 15225, "type" : "SCALAR", "max" : [15224], "min" : [0]}, {"bufferView" : 5, "byteOffset" : 0, "componentType" : 5126, "count" : 15225, "type" : "VEC3", "max" : [44.0004997253418, 74, 39.33300018310547], "min" : [-31, -64.45950317382812, 5.499499797821045], "name" : "POSITION"}, {"bufferView" : 5, "byteOffset" : 12, "componentType" : 5126, "count" : 15225, "type" : "VEC3", "max" : [1.0000044107437134, 1.0000044107437134, 1.0000044107437134], "min" : [-1.0000044107437134, -0.9903602004051208, -1.0000044107437134], "name" : "NORMAL"}], "asset" : {"generator" : "Aspose.3D 22.7", "version" : "2.0"}, "buffers" : [{"uri" : "data:application/octet-stream;base64,", "byteLength" : 1796680}], "bufferViews" : [{"buffer" : 0, "byteOffset" : 0, "byteLength" : 138208, "target" : 34963}, {"buffer" : 0, "byteOffset" : 138212, "byteLength" : 891648, "byteStride" : 24, "target" : 34962}, {"buffer" : 0, "byteOffset" : 1029864, "byteLength" : 13968, "byteStride" : 24, "target" : 34962}, {"buffer" : 0, "byteOffset" : 1043836, "byteLength" : 353952, "byteStride" : 24, "target" : 34962}, {"buffer" : 0, "byteOffset" : 1397792, "byteLength" : 33480, "byteStride" : 24, "target" : 34962}, {"buffer" : 0, "byteOffset" : 1431276, "byteLength" : 365400, "byteStride" : 24, "target" : 34962}], "materials" : [{"name" : "color_6383466", "pbrMetallicRoughness" : {"baseColorFactor" : [0.3803921568627451, 0.403921568627451, 0.41568627450980394, 1], "metallicFactor" : 0.5, "roughnessFactor" : 0.5}, "emissiveFactor" : [0, 0, 0], "alphaMode" : "OPAQUE", "doubleSided" : false}, {"name" : "color_14541540", "pbrMetallicRoughness" : {"baseColorFactor" : [0.8666666666666667, 0.8862745098039215, 0.8941176470588236, 1], "metallicFactor" : 0.5, "roughnessFactor" : 0.5}, "emissiveFactor" : [0, 0, 0], "alphaMode" : "OPAQUE", "doubleSided" : false}, {"name" : "color_15277357", "pbrMetallicRoughness" : {"baseColorFactor" : [0.9137254901960784, 0.11372549019607843, 0.17647058823529413, 1], "metallicFactor" : 0.5, "roughnessFactor" : 0.5}, "emissiveFactor" : [0, 0, 0], "alphaMode" : "OPAQUE", "doubleSided" : false}, {"name" : "color_16089887", "pbrMetallicRoughness" : {"baseColorFactor" : [0.9607843137254902, 0.5137254901960784, 0.12156862745098039, 1], "metallicFactor" : 0.5, "roughnessFactor" : 0.5}, "emissiveFactor" : [0, 0, 0], "alphaMode" : "OPAQUE", "doubleSided" : false}, {"name" : "color_16448250", "pbrMetallicRoughness" : {"baseColorFactor" : [0.9803921568627451, 0.9803921568627451, 0.9803921568627451, 1], "metallicFactor" : 0.5, "roughnessFactor" : 0.5}, "emissiveFactor" : [0, 0, 0], "alphaMode" : "OPAQUE", "doubleSided" : false}], "meshes" : [{"primitives" : [{"attributes" : {"POSITION" : 1, "NORMAL" : 2}, "indices" : 0, "material" : 0, "mode" : 4}]}, {"primitives" : [{"attributes" : {"POSITION" : 4, "NORMAL" : 5}, "indices" : 3, "material" : 1, "mode" : 4}]}, {"primitives" : [{"attributes" : {"POSITION" : 7, "NORMAL" : 8}, "indices" : 6, "material" : 2, "mode" : 4}]}, {"primitives" : [{"attributes" : {"POSITION" : 10, "NORMAL" : 11}, "indices" : 9, "material" : 3, "mode" : 4}]}, {"primitives" : [{"attributes" : {"POSITION" : 13, "NORMAL" : 14}, "indices" : 12, "material" : 4, "mode" : 4}]}], "nodes" : [{"mesh" : 0, "name" : "group_0_6383466"}, {"mesh" : 1, "name" : "group_0_14541540"}, {"mesh" : 2, "name" : "group_0_15277357"}, {"mesh" : 3, "name" : "group_0_16089887"}, {"mesh" : 4, "name" : "group_0_16448250"}, {"children" : [0, 1, 2, 3, 4], "matrix" : [-2.220446049250313E-16, 2.220446049250313E-16, 1, 0, 1, 0, 2.220446049250313E-16, 0, 0, 1, -2.220446049250313E-16, 0, 0, 0, 0, 1], "name" : "entity_1"}], "scene" : 0, "scenes" : [{"nodes" : [5]}]}